<svg xmlns="http://www.w3.org/2000/svg" viewBox="0 0 520 160" role="img" aria-labelledby="title desc">
  <title id="title">Trojet Tona</title>
  <desc id="desc">Modern premium liquid glass logo for Trojet Tona.</desc>
  <defs>
    <linearGradient id="glass" x1="18" y1="18" x2="130" y2="138" gradientUnits="userSpaceOnUse">
      <stop offset="0" stop-color="#ffffff" stop-opacity=".96"/>
      <stop offset=".22" stop-color="#c9f6ff" stop-opacity=".9"/>
      <stop offset=".56" stop-color="#47b7df" stop-opacity=".82"/>
      <stop offset="1" stop-color="#0b4969" stop-opacity=".96"/>
    </linearGradient>
    <linearGradient id="land" x1="48" y1="112" x2="115" y2="56" gradientUnits="userSpaceOnUse">
      <stop offset="0" stop-color="#62c66e"/>
      <stop offset=".52" stop-color="#b8e66d"/>
      <stop offset="1" stop-color="#f0c25d"/>
    </linearGradient>
    <linearGradient id="ink" x1="172" y1="38" x2="438" y2="124" gradientUnits="userSpaceOnUse">
      <stop offset="0" stop-color="#071f3f"/>
      <stop offset=".58" stop-color="#12385d"/>
      <stop offset="1" stop-color="#0f6b86"/>
    </linearGradient>
    <radialGradient id="glow" cx="38" cy="24" r="96" gradientUnits="userSpaceOnUse">
      <stop offset="0" stop-color="#ffffff" stop-opacity=".95"/>
      <stop offset=".34" stop-color="#9fefff" stop-opacity=".52"/>
      <stop offset="1" stop-color="#0b6a8d" stop-opacity="0"/>
    </radialGradient>
    <filter id="shadow" x="-30%" y="-30%" width="160%" height="170%">
      <feDropShadow dx="0" dy="18" stdDeviation="16" flood-color="#082338" flood-opacity=".24"/>
      <feDropShadow dx="0" dy="3" stdDeviation="4" flood-color="#ffffff" flood-opacity=".28"/>
    </filter>
    <filter id="softInset" x="-20%" y="-20%" width="140%" height="140%">
      <feGaussianBlur in="SourceAlpha" stdDeviation="5" result="blur"/>
      <feOffset dx="-4" dy="-4" result="offsetLight"/>
      <feComposite in="offsetLight" in2="SourceAlpha" operator="arithmetic" k2="-1" k3="1" result="innerLight"/>
      <feColorMatrix in="innerLight" type="matrix" values="1 0 0 0 1  0 1 0 0 1  0 0 1 0 1  0 0 0 .68 0"/>
      <feBlend in="SourceGraphic" mode="screen"/>
    </filter>
  </defs>

  <rect width="520" height="160" fill="none"/>

  <g filter="url(#shadow)">
    <path d="M77.6 18.4c24.9 0 50.7 22.2 55 51.4 4.1 28.2-10.2 55.5-37.7 65.4-26.6 9.6-59.4-.6-71.3-27.5C10.8 78.9 23.5 43.3 50.1 27.8c8.4-4.9 17.6-9.4 27.5-9.4Z" fill="url(#glass)"/>
    <path d="M77.6 18.4c24.9 0 50.7 22.2 55 51.4 4.1 28.2-10.2 55.5-37.7 65.4-26.6 9.6-59.4-.6-71.3-27.5C10.8 78.9 23.5 43.3 50.1 27.8c8.4-4.9 17.6-9.4 27.5-9.4Z" fill="url(#glow)"/>
    <path d="M77.6 18.4c24.9 0 50.7 22.2 55 51.4 4.1 28.2-10.2 55.5-37.7 65.4-26.6 9.6-59.4-.6-71.3-27.5C10.8 78.9 23.5 43.3 50.1 27.8c8.4-4.9 17.6-9.4 27.5-9.4Z" fill="none" stroke="#ffffff" stroke-opacity=".72" stroke-width="2"/>
  </g>

  <g filter="url(#softInset)">
    <path d="M42 95.8 75.2 58l40.5 34.7c-9.7 21.4-34.8 29.7-54.9 21.6-8.2-3.3-14.5-9.5-18.8-18.5Z" fill="url(#land)"/>
    <path d="M46.1 93.7 75.3 67l35.7 29.9c-10.2 14.4-31.3 19.2-48.1 12.3-7.3-3-12.9-8.1-16.8-15.5Z" fill="#ffffff" opacity=".22"/>
    <path d="M59.2 88.5c11-5.9 25.2-7.2 41.8 3.8" fill="none" stroke="#ffffff" stroke-opacity=".58" stroke-width="3.4" stroke-linecap="round"/>
  </g>

  <path d="M40.8 45.6c12.8-16.8 32.1-20.8 49.1-14.7" fill="none" stroke="#ffffff" stroke-opacity=".8" stroke-width="7" stroke-linecap="round"/>
  <circle cx="54.5" cy="43.5" r="7.5" fill="#fff" opacity=".66"/>

  <g fill="url(#ink)">
    <path d="M178.6 51.2h-31.4V35.5h81.9v15.7h-31.5v75.1h-19V51.2Z"/>
    <path d="M238.7 61.6h17.1v12c4.1-8.1 11.4-13.4 21.7-13.4 2.1 0 3.8.1 5.1.5v17.1c-2.3-.6-4.6-.8-6.9-.8-12.1 0-19 7.3-19 20.6v28.7h-18V61.6Z"/>
    <path d="M287 94.1c0-19.5 14.7-34.1 35-34.1s35 14.6 35 34.1-14.7 34.1-35 34.1-35-14.6-35-34.1Zm52 0c0-10.9-7-18.4-17-18.4s-17 7.5-17 18.4 7 18.4 17 18.4 17-7.5 17-18.4Z"/>
    <path d="M368.7 61.6h18v64.7h-18V61.6Zm-.8-24.2c0-5.7 4.4-10.1 10.1-10.1 5.9 0 10.3 4.4 10.3 10.1s-4.4 10.1-10.3 10.1c-5.7 0-10.1-4.4-10.1-10.1Z"/>
    <path d="M403.8 61.6h17v8.7c4.4-6.5 11.4-10.3 20.7-10.3 15.6 0 25.9 10.6 25.9 28v38.3h-18V90.7c0-9.2-4.8-14.6-12.9-14.6-8.7 0-14.7 6.3-14.7 15.7v34.5h-18V61.6Z"/>
  </g>
  <text x="148" y="146" fill="#55706f" font-family="Inter, Arial, sans-serif" font-size="18" font-weight="700" letter-spacing="5">TONA</text>
</svg>
